%TF.GenerationSoftware,KiCad,Pcbnew,(5.1.7-0-10_14)*%
%TF.CreationDate,2021-05-24T16:57:22-07:00*%
%TF.ProjectId,Pixie Disc,50697869-6520-4446-9973-632e6b696361,rev?*%
%TF.SameCoordinates,Original*%
%TF.FileFunction,Paste,Top*%
%TF.FilePolarity,Positive*%
%FSLAX46Y46*%
G04 Gerber Fmt 4.6, Leading zero omitted, Abs format (unit mm)*
G04 Created by KiCad (PCBNEW (5.1.7-0-10_14)) date 2021-05-24 16:57:22*
%MOMM*%
%LPD*%
G01*
G04 APERTURE LIST*
%ADD10C,1.100000*%
%ADD11C,0.500000*%
%ADD12C,0.100000*%
G04 APERTURE END LIST*
D10*
X277993733Y-133264988D02*
G75*
G02*
X250749999Y-160494139I-27993733J764988D01*
G01*
X249235012Y-160493733D02*
G75*
G02*
X222005861Y-133249999I764988J27993733D01*
G01*
X222006267Y-131735012D02*
G75*
G02*
X249250001Y-104505861I27993733J-764988D01*
G01*
X250764988Y-104506267D02*
G75*
G02*
X277994139Y-131750001I-764988J-27993733D01*
G01*
D11*
X237000000Y-104249999D02*
G75*
G02*
X223250001Y-90500000I500000J14249999D01*
G01*
X251750000Y-90500000D02*
G75*
G02*
X238000000Y-104250000I-14250000J500000D01*
G01*
X223250000Y-89500000D02*
G75*
G02*
X237000000Y-75750000I14250000J-500000D01*
G01*
X238000000Y-75750001D02*
G75*
G02*
X251749999Y-89500000I-500000J-14249999D01*
G01*
D12*
G36*
X243261415Y-99050600D02*
G01*
X241869710Y-99050600D01*
X242562915Y-98309770D01*
X243261415Y-98309770D01*
X243261415Y-99050600D01*
G37*
X243261415Y-99050600D02*
X241869710Y-99050600D01*
X242562915Y-98309770D01*
X243261415Y-98309770D01*
X243261415Y-99050600D01*
G36*
X237230111Y-99351784D02*
G01*
X237806901Y-99404700D01*
X238181534Y-99554933D01*
X238474312Y-99820757D01*
X238664894Y-100174884D01*
X238732941Y-100590030D01*
X238658938Y-101024336D01*
X238450496Y-101389708D01*
X238127953Y-101660822D01*
X237711648Y-101812378D01*
X237711648Y-101023923D01*
X237911408Y-100840039D01*
X237976231Y-100600591D01*
X237938528Y-100412738D01*
X237833356Y-100256634D01*
X237597879Y-100131618D01*
X237203651Y-100097885D01*
X236478696Y-100097885D01*
X236478696Y-98187600D01*
X237230111Y-98187600D01*
X237230111Y-99351784D01*
G37*
X237230111Y-99351784D02*
X237806901Y-99404700D01*
X238181534Y-99554933D01*
X238474312Y-99820757D01*
X238664894Y-100174884D01*
X238732941Y-100590030D01*
X238658938Y-101024336D01*
X238450496Y-101389708D01*
X238127953Y-101660822D01*
X237711648Y-101812378D01*
X237711648Y-101023923D01*
X237911408Y-100840039D01*
X237976231Y-100600591D01*
X237938528Y-100412738D01*
X237833356Y-100256634D01*
X237597879Y-100131618D01*
X237203651Y-100097885D01*
X236478696Y-100097885D01*
X236478696Y-98187600D01*
X237230111Y-98187600D01*
X237230111Y-99351784D01*
G36*
X248226309Y-93411635D02*
G01*
X248259383Y-93690770D01*
X248161819Y-94179175D01*
X247895582Y-94577785D01*
X247500362Y-94846419D01*
X247015844Y-94944893D01*
X246537859Y-94852207D01*
X246152644Y-94592338D01*
X245885499Y-94192570D01*
X245761724Y-93680188D01*
X246523719Y-93680188D01*
X246587219Y-93928896D01*
X246753906Y-94125348D01*
X247015843Y-94198770D01*
X247359800Y-94065156D01*
X247460838Y-93917486D01*
X247497383Y-93733105D01*
X247492093Y-93643147D01*
X247851926Y-93442064D01*
X248121800Y-93156315D01*
X248226309Y-93411635D01*
G37*
X248226309Y-93411635D02*
X248259383Y-93690770D01*
X248161819Y-94179175D01*
X247895582Y-94577785D01*
X247500362Y-94846419D01*
X247015844Y-94944893D01*
X246537859Y-94852207D01*
X246152644Y-94592338D01*
X245885499Y-94192570D01*
X245761724Y-93680188D01*
X246523719Y-93680188D01*
X246587219Y-93928896D01*
X246753906Y-94125348D01*
X247015843Y-94198770D01*
X247359800Y-94065156D01*
X247460838Y-93917486D01*
X247497383Y-93733105D01*
X247492093Y-93643147D01*
X247851926Y-93442064D01*
X248121800Y-93156315D01*
X248226309Y-93411635D01*
G36*
X231407857Y-80875335D02*
G01*
X231145920Y-81071785D01*
X231058608Y-81383330D01*
X231153196Y-81700168D01*
X231466065Y-81933660D01*
X231079776Y-82584535D01*
X230661735Y-82277620D01*
X230405752Y-81868839D01*
X230312487Y-81388625D01*
X230393598Y-80933211D01*
X230620063Y-80547250D01*
X230966583Y-80260508D01*
X231407857Y-80102750D01*
X231407857Y-80875335D01*
G37*
X231407857Y-80875335D02*
X231145920Y-81071785D01*
X231058608Y-81383330D01*
X231153196Y-81700168D01*
X231466065Y-81933660D01*
X231079776Y-82584535D01*
X230661735Y-82277620D01*
X230405752Y-81868839D01*
X230312487Y-81388625D01*
X230393598Y-80933211D01*
X230620063Y-80547250D01*
X230966583Y-80260508D01*
X231407857Y-80102750D01*
X231407857Y-80875335D01*
G36*
X227790995Y-85785359D02*
G01*
X227576683Y-85888546D01*
X227505246Y-86086984D01*
X227576683Y-86290052D01*
X227790995Y-86393900D01*
X227790995Y-87140025D01*
X227470189Y-87272978D01*
X227367663Y-87568649D01*
X227474157Y-87879533D01*
X227790995Y-88023730D01*
X227790997Y-88764554D01*
X227299948Y-88644668D01*
X226926473Y-88392820D01*
X226688927Y-88027861D01*
X226605667Y-87568644D01*
X226692979Y-87116870D01*
X226954916Y-86732564D01*
X226791536Y-86429618D01*
X226743250Y-86118734D01*
X226819895Y-85705490D01*
X227034950Y-85376581D01*
X227366091Y-85152844D01*
X227790995Y-85055114D01*
X227790995Y-85785359D01*
G37*
X227790995Y-85785359D02*
X227576683Y-85888546D01*
X227505246Y-86086984D01*
X227576683Y-86290052D01*
X227790995Y-86393900D01*
X227790995Y-87140025D01*
X227470189Y-87272978D01*
X227367663Y-87568649D01*
X227474157Y-87879533D01*
X227790995Y-88023730D01*
X227790997Y-88764554D01*
X227299948Y-88644668D01*
X226926473Y-88392820D01*
X226688927Y-88027861D01*
X226605667Y-87568644D01*
X226692979Y-87116870D01*
X226954916Y-86732564D01*
X226791536Y-86429618D01*
X226743250Y-86118734D01*
X226819895Y-85705490D01*
X227034950Y-85376581D01*
X227366091Y-85152844D01*
X227790995Y-85055114D01*
X227790995Y-85785359D01*
G36*
X228994850Y-92060930D02*
G01*
X226719440Y-92060930D01*
X226719440Y-91320100D01*
X229259450Y-91320100D01*
X228994850Y-92060930D01*
G37*
X228994850Y-92060930D02*
X226719440Y-92060930D01*
X226719440Y-91320100D01*
X229259450Y-91320100D01*
X228994850Y-92060930D01*
G36*
X232266590Y-80252074D02*
G01*
X232616997Y-80535344D01*
X232848341Y-80919816D01*
X232931847Y-81372750D01*
X232869008Y-81764330D01*
X232651389Y-82219410D01*
X231767684Y-83716950D01*
X230894564Y-83716950D01*
X232000519Y-81859580D01*
X232180436Y-81356875D01*
X232088493Y-81058557D01*
X231825895Y-80875335D01*
X231825895Y-80102750D01*
X232266590Y-80252074D01*
G37*
X232266590Y-80252074D02*
X232616997Y-80535344D01*
X232848341Y-80919816D01*
X232931847Y-81372750D01*
X232869008Y-81764330D01*
X232651389Y-82219410D01*
X231767684Y-83716950D01*
X230894564Y-83716950D01*
X232000519Y-81859580D01*
X232180436Y-81356875D01*
X232088493Y-81058557D01*
X231825895Y-80875335D01*
X231825895Y-80102750D01*
X232266590Y-80252074D01*
G36*
X236566452Y-80576457D02*
G01*
X236807470Y-80857244D01*
X237124886Y-81038813D01*
X237497370Y-81103305D01*
X237870762Y-81041789D01*
X238186608Y-80865181D01*
X238429032Y-80585386D01*
X238582159Y-80214310D01*
X239349450Y-80214310D01*
X239140512Y-80875519D01*
X238733634Y-81396333D01*
X238172968Y-81737563D01*
X237502665Y-81860015D01*
X236832278Y-81735330D01*
X236267063Y-81390380D01*
X235856629Y-80868822D01*
X235650585Y-80214310D01*
X236423165Y-80214310D01*
X236566452Y-80576457D01*
G37*
X236566452Y-80576457D02*
X236807470Y-80857244D01*
X237124886Y-81038813D01*
X237497370Y-81103305D01*
X237870762Y-81041789D01*
X238186608Y-80865181D01*
X238429032Y-80585386D01*
X238582159Y-80214310D01*
X239349450Y-80214310D01*
X239140512Y-80875519D01*
X238733634Y-81396333D01*
X238172968Y-81737563D01*
X237502665Y-81860015D01*
X236832278Y-81735330D01*
X236267063Y-81390380D01*
X235856629Y-80868822D01*
X235650585Y-80214310D01*
X236423165Y-80214310D01*
X236566452Y-80576457D01*
G36*
X247557247Y-85189479D02*
G01*
X247933947Y-85440749D01*
X248187615Y-85814058D01*
X248280550Y-86272200D01*
X248193234Y-86692228D01*
X247899547Y-87155908D01*
X247608506Y-87531615D01*
X246656011Y-87531615D01*
X247291011Y-86711410D01*
X247464974Y-86458734D01*
X247507969Y-86277495D01*
X247386261Y-85976532D01*
X247089929Y-85854163D01*
X246777721Y-85976532D01*
X246656013Y-86340995D01*
X245904598Y-86340995D01*
X245989265Y-85817120D01*
X246167279Y-85521614D01*
X246425165Y-85294569D01*
X246741589Y-85148883D01*
X247095220Y-85097455D01*
X247557247Y-85189479D01*
G37*
X247557247Y-85189479D02*
X247933947Y-85440749D01*
X248187615Y-85814058D01*
X248280550Y-86272200D01*
X248193234Y-86692228D01*
X247899547Y-87155908D01*
X247608506Y-87531615D01*
X246656011Y-87531615D01*
X247291011Y-86711410D01*
X247464974Y-86458734D01*
X247507969Y-86277495D01*
X247386261Y-85976532D01*
X247089929Y-85854163D01*
X246777721Y-85976532D01*
X246656013Y-86340995D01*
X245904598Y-86340995D01*
X245989265Y-85817120D01*
X246167279Y-85521614D01*
X246425165Y-85294569D01*
X246741589Y-85148883D01*
X247095220Y-85097455D01*
X247557247Y-85189479D01*
G36*
X247422557Y-91320442D02*
G01*
X247771889Y-91554267D01*
X248005135Y-91905169D01*
X248090050Y-92341400D01*
X248010100Y-92773826D01*
X247783799Y-93113981D01*
X247431490Y-93343010D01*
X246973514Y-93442063D01*
X246973514Y-92701233D01*
X247248018Y-92588785D01*
X247343929Y-92341400D01*
X247242065Y-92086078D01*
X246989389Y-91981568D01*
X246813441Y-92023901D01*
X246693056Y-92145609D01*
X246624265Y-92373150D01*
X245878140Y-92373150D01*
X245975868Y-91918564D01*
X246211511Y-91558235D01*
X246558280Y-91320938D01*
X246989385Y-91235444D01*
X247422557Y-91320442D01*
G37*
X247422557Y-91320442D02*
X247771889Y-91554267D01*
X248005135Y-91905169D01*
X248090050Y-92341400D01*
X248010100Y-92773826D01*
X247783799Y-93113981D01*
X247431490Y-93343010D01*
X246973514Y-93442063D01*
X246973514Y-92701233D01*
X247248018Y-92588785D01*
X247343929Y-92341400D01*
X247242065Y-92086078D01*
X246989389Y-91981568D01*
X246813441Y-92023901D01*
X246693056Y-92145609D01*
X246624265Y-92373150D01*
X245878140Y-92373150D01*
X245975868Y-91918564D01*
X246211511Y-91558235D01*
X246558280Y-91320938D01*
X246989385Y-91235444D01*
X247422557Y-91320442D01*
G36*
X232582602Y-97722395D02*
G01*
X232840569Y-98128528D01*
X232931850Y-98606100D01*
X232850737Y-99064492D01*
X232624272Y-99451444D01*
X232277752Y-99737193D01*
X231836478Y-99891974D01*
X231836478Y-99119394D01*
X232098415Y-98922940D01*
X232185727Y-98611394D01*
X232091139Y-98297202D01*
X231778270Y-98066354D01*
X232164561Y-97415479D01*
X232582602Y-97722395D01*
G37*
X232582602Y-97722395D02*
X232840569Y-98128528D01*
X232931850Y-98606100D01*
X232850737Y-99064492D01*
X232624272Y-99451444D01*
X232277752Y-99737193D01*
X231836478Y-99891974D01*
X231836478Y-99119394D01*
X232098415Y-98922940D01*
X232185727Y-98611394D01*
X232091139Y-98297202D01*
X231778270Y-98066354D01*
X232164561Y-97415479D01*
X232582602Y-97722395D01*
G36*
X243912300Y-83730150D02*
G01*
X243150300Y-83730149D01*
X243150300Y-81385949D01*
X242843385Y-81565865D01*
X242843385Y-80724495D01*
X243912300Y-80089495D01*
X243912300Y-83730150D01*
G37*
X243912300Y-83730150D02*
X243150300Y-83730149D01*
X243150300Y-81385949D01*
X242843385Y-81565865D01*
X242843385Y-80724495D01*
X243912300Y-80089495D01*
X243912300Y-83730150D01*
G36*
X228612774Y-85152849D02*
G01*
X228943915Y-85376587D01*
X229158971Y-85705496D01*
X229235617Y-86118740D01*
X229187330Y-86429623D01*
X229023951Y-86732570D01*
X229285887Y-87116874D01*
X229373202Y-87568656D01*
X229289941Y-88027870D01*
X229052395Y-88392828D01*
X228678920Y-88644677D01*
X228187872Y-88764566D01*
X228187872Y-88023736D01*
X228507355Y-87879539D01*
X228616495Y-87568655D01*
X228511324Y-87272983D01*
X228187872Y-87140031D01*
X228187872Y-86393906D01*
X228402184Y-86290057D01*
X228473621Y-86086990D01*
X228404168Y-85888552D01*
X228187872Y-85785365D01*
X228187872Y-85055120D01*
X228612774Y-85152849D01*
G37*
X228612774Y-85152849D02*
X228943915Y-85376587D01*
X229158971Y-85705496D01*
X229235617Y-86118740D01*
X229187330Y-86429623D01*
X229023951Y-86732570D01*
X229285887Y-87116874D01*
X229373202Y-87568656D01*
X229289941Y-88027870D01*
X229052395Y-88392828D01*
X228678920Y-88644677D01*
X228187872Y-88764566D01*
X228187872Y-88023736D01*
X228507355Y-87879539D01*
X228616495Y-87568655D01*
X228511324Y-87272983D01*
X228187872Y-87140031D01*
X228187872Y-86393906D01*
X228402184Y-86290057D01*
X228473621Y-86086990D01*
X228404168Y-85888552D01*
X228187872Y-85785365D01*
X228187872Y-85055120D01*
X228612774Y-85152849D01*
G36*
X227984145Y-94860250D02*
G01*
X227174520Y-94860250D01*
X228026500Y-92494845D01*
X228836118Y-92494845D01*
X227984145Y-94860250D01*
G37*
X227984145Y-94860250D02*
X227174520Y-94860250D01*
X228026500Y-92494845D01*
X228836118Y-92494845D01*
X227984145Y-94860250D01*
G36*
X244452035Y-98309770D02*
G01*
X244885950Y-98309770D01*
X244885950Y-99050600D01*
X244452035Y-99050595D01*
X244452035Y-99913135D01*
X243690040Y-99913135D01*
X243690040Y-97087395D01*
X244452035Y-96267190D01*
X244452035Y-98309770D01*
G37*
X244452035Y-98309770D02*
X244885950Y-98309770D01*
X244885950Y-99050600D01*
X244452035Y-99050595D01*
X244452035Y-99913135D01*
X243690040Y-99913135D01*
X243690040Y-97087395D01*
X244452035Y-96267190D01*
X244452035Y-98309770D01*
G36*
X248307010Y-88722235D02*
G01*
X245714100Y-88722235D01*
X246296180Y-87981405D01*
X248307010Y-87981405D01*
X248307010Y-88722235D01*
G37*
X248307010Y-88722235D02*
X245714100Y-88722235D01*
X246296180Y-87981405D01*
X248307010Y-87981405D01*
X248307010Y-88722235D01*
G36*
X237122294Y-100865860D02*
G01*
X237293611Y-101013365D01*
X237293610Y-101807110D01*
X236911454Y-101673662D01*
X236609665Y-101449925D01*
X236393203Y-101138875D01*
X236267030Y-100743490D01*
X237034320Y-100642949D01*
X237122294Y-100865860D01*
G37*
X237122294Y-100865860D02*
X237293611Y-101013365D01*
X237293610Y-101807110D01*
X236911454Y-101673662D01*
X236609665Y-101449925D01*
X236393203Y-101138875D01*
X236267030Y-100743490D01*
X237034320Y-100642949D01*
X237122294Y-100865860D01*
G36*
X231243793Y-98140418D02*
G01*
X231063877Y-98637833D01*
X231155819Y-98938796D01*
X231418417Y-99124665D01*
X231418417Y-99897245D01*
X230977722Y-99747921D01*
X230627316Y-99464654D01*
X230395971Y-99080183D01*
X230312462Y-98627250D01*
X230375301Y-98233682D01*
X230592919Y-97780585D01*
X231476625Y-96283050D01*
X232349750Y-96283050D01*
X231243793Y-98140418D01*
G37*
X231243793Y-98140418D02*
X231063877Y-98637833D01*
X231155819Y-98938796D01*
X231418417Y-99124665D01*
X231418417Y-99897245D01*
X230977722Y-99747921D01*
X230627316Y-99464654D01*
X230395971Y-99080183D01*
X230312462Y-98627250D01*
X230375301Y-98233682D01*
X230592919Y-97780585D01*
X231476625Y-96283050D01*
X232349750Y-96283050D01*
X231243793Y-98140418D01*
G36*
X238568900Y-98928450D02*
G01*
X237653445Y-98928430D01*
X237653445Y-98187600D01*
X238568900Y-98187600D01*
X238568900Y-98928450D01*
G37*
X238568900Y-98928450D02*
X237653445Y-98928430D01*
X237653445Y-98187600D01*
X238568900Y-98187600D01*
X238568900Y-98928450D01*
G36*
X238172968Y-78262437D02*
G01*
X238733634Y-78603666D01*
X239140512Y-79124481D01*
X239349450Y-79785690D01*
X238582159Y-79785690D01*
X238429031Y-79417672D01*
X238186607Y-79139447D01*
X237870762Y-78963417D01*
X237497370Y-78901985D01*
X237124886Y-78965650D01*
X236807470Y-79145400D01*
X236566452Y-79424369D01*
X236423165Y-79785690D01*
X235650585Y-79785690D01*
X235856630Y-79133409D01*
X236267064Y-78611603D01*
X236832278Y-78265413D01*
X237502665Y-78139985D01*
X238172968Y-78262437D01*
G37*
X238172968Y-78262437D02*
X238733634Y-78603666D01*
X239140512Y-79124481D01*
X239349450Y-79785690D01*
X238582159Y-79785690D01*
X238429031Y-79417672D01*
X238186607Y-79139447D01*
X237870762Y-78963417D01*
X237497370Y-78901985D01*
X237124886Y-78965650D01*
X236807470Y-79145400D01*
X236566452Y-79424369D01*
X236423165Y-79785690D01*
X235650585Y-79785690D01*
X235856630Y-79133409D01*
X236267064Y-78611603D01*
X236832278Y-78265413D01*
X237502665Y-78139985D01*
X238172968Y-78262437D01*
G36*
X270114495Y-122878959D02*
G01*
X270867894Y-123381499D01*
X271375231Y-124128116D01*
X271561100Y-125044400D01*
X271386468Y-125884457D01*
X270799095Y-126811817D01*
X270217013Y-127563231D01*
X268312023Y-127563231D01*
X269929948Y-125417468D01*
X270000000Y-125000000D01*
X269772523Y-124453065D01*
X269179858Y-124208326D01*
X268555443Y-124453065D01*
X268312027Y-125181990D01*
X266809197Y-125181990D01*
X266978530Y-124134240D01*
X267334559Y-123543228D01*
X267850330Y-123089138D01*
X268483178Y-122797766D01*
X269190440Y-122694910D01*
X270114495Y-122878959D01*
G37*
G36*
X262824600Y-119960300D02*
G01*
X261300601Y-119960298D01*
X261300601Y-115271898D01*
X260686770Y-115631730D01*
X260686770Y-113948990D01*
X262824600Y-112678990D01*
X262824600Y-119960300D01*
G37*
G36*
X248132904Y-113652914D02*
G01*
X248614940Y-114214489D01*
X249249773Y-114577627D01*
X249994740Y-114706610D01*
X250741525Y-114583579D01*
X251373217Y-114230362D01*
X251858065Y-113670772D01*
X252164319Y-112928620D01*
X253698900Y-112928620D01*
X253281025Y-114251038D01*
X252467269Y-115292667D01*
X251345936Y-115975126D01*
X250005330Y-116220030D01*
X248664556Y-115970661D01*
X247534126Y-115280761D01*
X246713258Y-114237644D01*
X246301170Y-112928620D01*
X247846330Y-112928620D01*
X248132904Y-113652914D01*
G37*
G36*
X251345936Y-109024874D02*
G01*
X252467269Y-109707332D01*
X253281025Y-110748962D01*
X253698900Y-112071380D01*
X252164319Y-112071380D01*
X251858063Y-111335345D01*
X251373215Y-110778895D01*
X250741524Y-110426835D01*
X249994740Y-110303970D01*
X249249773Y-110431300D01*
X248614941Y-110790801D01*
X248132905Y-111348739D01*
X247846330Y-112071380D01*
X246301170Y-112071380D01*
X246713261Y-110766819D01*
X247534129Y-109723206D01*
X248664557Y-109030827D01*
X250005330Y-108779970D01*
X251345936Y-109024874D01*
G37*
G36*
X232225548Y-122805699D02*
G01*
X232887830Y-123253174D01*
X233317942Y-123910992D01*
X233471234Y-124737480D01*
X233374661Y-125359247D01*
X233047902Y-125965140D01*
X233571775Y-126733749D01*
X233746400Y-127637300D01*
X233579882Y-128555741D01*
X233104790Y-129285656D01*
X232357840Y-129789355D01*
X231375744Y-130029132D01*
X231375744Y-128547472D01*
X232014711Y-128259078D01*
X232232991Y-127637310D01*
X232022648Y-127045967D01*
X231375744Y-126780063D01*
X231375744Y-125287813D01*
X231804368Y-125080115D01*
X231947242Y-124673981D01*
X231808336Y-124277104D01*
X231375744Y-124070730D01*
X231375744Y-122610240D01*
X232225548Y-122805699D01*
G37*
G36*
X230968290Y-142220500D02*
G01*
X229349040Y-142220500D01*
X231053000Y-137489690D01*
X232672236Y-137489690D01*
X230968290Y-142220500D01*
G37*
G36*
X232989700Y-136621860D02*
G01*
X228438880Y-136621860D01*
X228438880Y-135140200D01*
X233518900Y-135140200D01*
X232989700Y-136621860D01*
G37*
G36*
X240165204Y-147944790D02*
G01*
X240681138Y-148757057D01*
X240863697Y-149712208D01*
X240701475Y-150628985D01*
X240248545Y-151402888D01*
X239555505Y-151974386D01*
X238672957Y-152283948D01*
X238672957Y-150738788D01*
X239196831Y-150345880D01*
X239371455Y-149722788D01*
X239182279Y-149094405D01*
X238556541Y-148632708D01*
X239329123Y-147330958D01*
X240165204Y-147944790D01*
G37*
G36*
X237487586Y-148780837D02*
G01*
X237127754Y-149775667D01*
X237311639Y-150377592D01*
X237836835Y-150749330D01*
X237836835Y-152294490D01*
X236955444Y-151995843D01*
X236254632Y-151429308D01*
X235791943Y-150660366D01*
X235624925Y-149754500D01*
X235750602Y-148967365D01*
X236185839Y-148061170D01*
X237953250Y-145066100D01*
X239699500Y-145066100D01*
X237487586Y-148780837D01*
G37*
G36*
X249244589Y-154231721D02*
G01*
X249587223Y-154526730D01*
X249587223Y-156114220D01*
X248822908Y-155847325D01*
X248219330Y-155399850D01*
X247786406Y-154777751D01*
X247534061Y-153986981D01*
X249068641Y-153785899D01*
X249244589Y-154231721D01*
G37*
G36*
X249460223Y-151203568D02*
G01*
X250613803Y-151309400D01*
X251363069Y-151609867D01*
X251948624Y-152141514D01*
X252329788Y-152849768D01*
X252465882Y-153680060D01*
X252317876Y-154548673D01*
X251900992Y-155279416D01*
X251255906Y-155821645D01*
X250423297Y-156124757D01*
X250423297Y-154547847D01*
X250822816Y-154180078D01*
X250952462Y-153701183D01*
X250877056Y-153325476D01*
X250666713Y-153013269D01*
X250195758Y-152763237D01*
X249407303Y-152695770D01*
X247957393Y-152695770D01*
X247957393Y-148875200D01*
X249460223Y-148875200D01*
X249460223Y-151203568D01*
G37*
G36*
X252137800Y-150356900D02*
G01*
X250306890Y-150356860D01*
X250306890Y-148875200D01*
X252137800Y-148875200D01*
X252137800Y-150356900D01*
G37*
G36*
X263904070Y-149119540D02*
G01*
X264771900Y-149119540D01*
X264771900Y-150601200D01*
X263904070Y-150601190D01*
X263904070Y-152326270D01*
X262380080Y-152326270D01*
X262380080Y-146674790D01*
X263904070Y-145034380D01*
X263904070Y-149119540D01*
G37*
G36*
X261522830Y-150601200D02*
G01*
X258739420Y-150601200D01*
X260125830Y-149119540D01*
X261522830Y-149119540D01*
X261522830Y-150601200D01*
G37*
G36*
X271452619Y-139323271D02*
G01*
X271518766Y-139881540D01*
X271323639Y-140858351D01*
X270791165Y-141655571D01*
X270000724Y-142192838D01*
X269031689Y-142389787D01*
X268075719Y-142204414D01*
X267305289Y-141684676D01*
X266770999Y-140885140D01*
X266523449Y-139860377D01*
X268047439Y-139860377D01*
X268174439Y-140357792D01*
X268507813Y-140750697D01*
X269031686Y-140897540D01*
X269719601Y-140630312D01*
X269921676Y-140334972D01*
X269994767Y-139966210D01*
X269984187Y-139786294D01*
X270703852Y-139384129D01*
X271243600Y-138812630D01*
X271452619Y-139323271D01*
G37*
G36*
X269845115Y-135140884D02*
G01*
X270543779Y-135608534D01*
X271010271Y-136310339D01*
X271180108Y-137182796D01*
X271020201Y-138047652D01*
X270567598Y-138727962D01*
X269862980Y-139186021D01*
X268947028Y-139384126D01*
X268947028Y-137902466D01*
X269496036Y-137677571D01*
X269687859Y-137182801D01*
X269484130Y-136672157D01*
X268978778Y-136463137D01*
X268626883Y-136547803D01*
X268386113Y-136791218D01*
X268248530Y-137246300D01*
X266756280Y-137246300D01*
X266951737Y-136337128D01*
X267423023Y-135616470D01*
X268116560Y-135141876D01*
X268978770Y-134970889D01*
X269845115Y-135140884D01*
G37*
G36*
X271614020Y-129944470D02*
G01*
X266428200Y-129944470D01*
X267592360Y-128462810D01*
X271614020Y-128462810D01*
X271614020Y-129944470D01*
G37*
G36*
X237815714Y-114250670D02*
G01*
X237291841Y-114643570D01*
X237117217Y-115266660D01*
X237306393Y-115900337D01*
X237932130Y-116367320D01*
X237159552Y-117669070D01*
X236323471Y-117055240D01*
X235811504Y-116237679D01*
X235624974Y-115277250D01*
X235787196Y-114366423D01*
X236240126Y-113594501D01*
X236933166Y-113021016D01*
X237815714Y-112705500D01*
X237815714Y-114250670D01*
G37*
G36*
X230581990Y-124070719D02*
G01*
X230153367Y-124277093D01*
X230010492Y-124673968D01*
X230153367Y-125080104D01*
X230581990Y-125287800D01*
X230581990Y-126780051D01*
X229940378Y-127045956D01*
X229735326Y-127637298D01*
X229948315Y-128259067D01*
X230581990Y-128547460D01*
X230581994Y-130029109D01*
X229599896Y-129789337D01*
X228852947Y-129285640D01*
X228377855Y-128555723D01*
X228211334Y-127637289D01*
X228385959Y-126733740D01*
X228909832Y-125965129D01*
X228583073Y-125359237D01*
X228486500Y-124737469D01*
X228639791Y-123910981D01*
X229069901Y-123253163D01*
X229732183Y-122805688D01*
X230581990Y-122610229D01*
X230581990Y-124070719D01*
G37*
G36*
X239533181Y-113004148D02*
G01*
X240233994Y-113570688D01*
X240696682Y-114339633D01*
X240863694Y-115245500D01*
X240738017Y-116028661D01*
X240302779Y-116938820D01*
X238535369Y-119933900D01*
X236789129Y-119933900D01*
X239001039Y-116219160D01*
X239360872Y-115213750D01*
X239176987Y-114617115D01*
X238651790Y-114250670D01*
X238651790Y-112705500D01*
X239533181Y-113004148D01*
G37*
M02*
